<svg width="20" height="20" viewBox="0 0 20 20" fill="none" xmlns="http://www.w3.org/2000/svg">
<path opacity="0.35" d="M0.556641 12.5918C0.556641 13.9329 0.836589 15.0983 1.39648 16.0879C1.95638 17.084 2.75716 17.8555 3.79883 18.4023C4.84701 18.9557 6.09701 19.2324 7.54883 19.2324H9.96094C10.319 19.2324 10.612 19.112 10.8398 18.8711C11.0742 18.6367 11.1914 18.3503 11.1914 18.0117C11.1914 17.6732 11.0742 17.3867 10.8398 17.1523C10.612 16.918 10.319 16.8008 9.96094 16.8008H7.66602C6.66341 16.8008 5.81055 16.6152 5.10742 16.2441C4.4043 15.873 3.86719 15.3685 3.49609 14.7305C3.13151 14.0859 2.94922 13.347 2.94922 12.5137C2.94922 11.6934 3.13151 10.9642 3.49609 10.3262C3.86719 9.68815 4.4043 9.1901 5.10742 8.83203C5.81055 8.47396 6.66341 8.29492 7.66602 8.29492H13.5156L17.002 8.13867L16.6016 7.49414L14.1309 9.54492L11.8555 11.7715C11.7448 11.8822 11.6536 12.0059 11.582 12.1426C11.5169 12.2793 11.4844 12.4388 11.4844 12.6211C11.4844 12.9596 11.5918 13.2396 11.8066 13.4609C12.028 13.6823 12.3177 13.793 12.6758 13.793C13.0078 13.793 13.2975 13.666 13.5449 13.4121L19.0625 7.97266C19.1862 7.86198 19.2806 7.72852 19.3457 7.57227C19.4108 7.40951 19.4434 7.24674 19.4434 7.08398C19.4434 6.91471 19.4108 6.75195 19.3457 6.5957C19.2806 6.43294 19.1862 6.29297 19.0625 6.17578L13.5449 0.736328C13.2975 0.488932 13.0078 0.365234 12.6758 0.365234C12.3177 0.365234 12.028 0.475911 11.8066 0.697266C11.5918 0.912109 11.4844 1.1888 11.4844 1.52734C11.4844 1.70964 11.5169 1.8724 11.582 2.01562C11.6536 2.15234 11.7448 2.27604 11.8555 2.38672L14.1309 4.61328L16.6016 6.66406L17.002 6.01953L13.5156 5.86328H7.66602C6.19466 5.86328 4.92513 6.14648 3.85742 6.71289C2.79622 7.2793 1.97917 8.07031 1.40625 9.08594C0.839844 10.0951 0.556641 11.2637 0.556641 12.5918Z" fill="white"/>
</svg>
