<svg width="23" height="16" viewBox="0 0 23 16" fill="none" xmlns="http://www.w3.org/2000/svg">
<path d="M17.5449 15.2246C18.0462 15.2246 18.528 15.14 18.9902 14.9707C19.4525 14.7949 19.8626 14.5508 20.2207 14.2383C20.5788 13.9258 20.8587 13.5579 21.0605 13.1348H21.0996V14.4238C21.0996 14.6712 21.1745 14.8665 21.3242 15.0098C21.474 15.1595 21.6628 15.2344 21.8906 15.2344C22.125 15.2344 22.3171 15.1595 22.4668 15.0098C22.6165 14.86 22.6914 14.6517 22.6914 14.3848V7.87109C22.6914 7.16146 22.5254 6.54622 22.1934 6.02539C21.8678 5.49805 21.4023 5.09115 20.7969 4.80469C20.1914 4.51172 19.4753 4.36523 18.6484 4.36523C17.7305 4.36523 16.9167 4.55404 16.207 4.93164C15.4974 5.30273 15.0026 5.80404 14.7227 6.43555C14.6641 6.55273 14.6185 6.66992 14.5859 6.78711C14.5534 6.9043 14.5371 7.01497 14.5371 7.11914C14.5371 7.33398 14.6055 7.50651 14.7422 7.63672C14.8854 7.76693 15.0645 7.83203 15.2793 7.83203C15.429 7.83203 15.5625 7.80273 15.6797 7.74414C15.7969 7.67904 15.8913 7.57812 15.9629 7.44141C16.2363 6.875 16.5846 6.45833 17.0078 6.19141C17.4375 5.91797 17.9714 5.78125 18.6094 5.78125C19.3711 5.78125 19.9668 5.97982 20.3965 6.37695C20.8262 6.77409 21.041 7.31445 21.041 7.99805V8.83789L17.8867 9.01367C16.6497 9.07878 15.6992 9.38477 15.0352 9.93164C14.3711 10.472 14.0391 11.1979 14.0391 12.1094C14.0391 12.7344 14.1855 13.2812 14.4785 13.75C14.778 14.2122 15.1914 14.5736 15.7188 14.834C16.2461 15.0944 16.8548 15.2246 17.5449 15.2246ZM17.9453 13.8672C17.2812 13.8672 16.7441 13.7012 16.334 13.3691C15.9303 13.0371 15.7285 12.6042 15.7285 12.0703C15.7285 11.5495 15.9303 11.1296 16.334 10.8105C16.7376 10.485 17.3236 10.2962 18.0918 10.2441L21.041 10.0586V11.0938C21.041 11.6146 20.901 12.0833 20.6211 12.5C20.3477 12.9167 19.9766 13.2487 19.5078 13.4961C19.0391 13.7435 18.5182 13.8672 17.9453 13.8672ZM1.12891 15.1562C1.38932 15.1562 1.59115 15.1009 1.73438 14.9902C1.8776 14.8796 1.99479 14.6875 2.08594 14.4141L3.3457 10.9668H9.10742L10.3672 14.4141C10.4583 14.6875 10.5755 14.8796 10.7188 14.9902C10.862 15.1009 11.0605 15.1562 11.3145 15.1562C11.5749 15.1562 11.7799 15.0846 11.9297 14.9414C12.0859 14.7982 12.1641 14.6029 12.1641 14.3555C12.1641 14.2057 12.1283 14.0299 12.0566 13.8281L7.47656 1.63086C7.35938 1.33138 7.19987 1.10677 6.99805 0.957031C6.79622 0.807292 6.53906 0.732422 6.22656 0.732422C5.62109 0.732422 5.21094 1.02865 4.99609 1.62109L0.416016 13.8379C0.344401 14.0397 0.308594 14.2155 0.308594 14.3652C0.308594 14.6126 0.380208 14.8079 0.523438 14.9512C0.673177 15.0879 0.875 15.1562 1.12891 15.1562ZM3.82422 9.48242L6.19727 2.91016H6.24609L8.61914 9.48242H3.82422Z" fill="white"/>
</svg>
