<svg width="30" height="25" viewBox="0 0 30 25" fill="none" xmlns="http://www.w3.org/2000/svg">
<path fill-rule="evenodd" clip-rule="evenodd" d="M2.1 0.416504H27.9C28.7837 0.416504 29.5 1.19203 29.5 2.1487V14.5176C29.5 15.4743 28.7837 16.2498 27.9 16.2498H2.1C1.21634 16.2498 0.5 15.4743 0.5 14.5176V2.1487C0.5 1.19203 1.21634 0.416504 2.1 0.416504ZM2.3913 1.99984C2.17519 1.99984 2 2.18601 2 2.41566V14.2507C2 14.4803 2.17519 14.6665 2.3913 14.6665H27.6087C27.8248 14.6665 28 14.4803 28 14.2507V2.41566C28 2.18601 27.8248 1.99984 27.6087 1.99984H2.3913ZM26.5 10.9721H24.5V13.0832H26.5V10.9721ZM7 10.9721H23V13.0832H7V10.9721ZM5.5 10.9721H3.5V13.0832H5.5V10.9721ZM24.5 7.27762H26.5V9.38873H24.5V7.27762ZM23 7.27762H21V9.38873H23V7.27762ZM17.5 7.27762H19.5V9.38873H17.5V7.27762ZM16 7.27762H14V9.38873H16V7.27762ZM10.5 7.27762H12.5V9.38873H10.5V7.27762ZM9 7.27762H7V9.38873H9V7.27762ZM3.5 7.27762H5.5V9.38873H3.5V7.27762ZM26.5 3.58317H24.5V5.69428H26.5V3.58317ZM21 3.58317H23V5.69428H21V3.58317ZM19.5 3.58317H17.5V5.69428H19.5V3.58317ZM14 3.58317H16V5.69428H14V3.58317ZM12.5 3.58317H10.5V5.69428H12.5V3.58317ZM7 3.58317H9V5.69428H7V3.58317ZM5.5 3.58317H3.5V5.69428H5.5V3.58317Z" fill="black"/>
<path d="M10.5 20.4165L15 23.7498L19.5 20.4165" stroke="black" stroke-width="1.5" stroke-linecap="round" stroke-linejoin="round"/>
</svg>
